<svg width="79" height="25" viewBox="0 0 79 25" fill="none" xmlns="http://www.w3.org/2000/svg">
<path d="M35.3238 19.5537C34.5063 19.5537 33.7527 19.4288 33.0606 19.1778C32.3696 18.9269 31.8029 18.5522 31.3001 18.1139C30.7973 17.6132 30.4198 17.05 30.1052 16.2984C29.8532 15.5467 29.665 14.7338 29.665 13.7312V13.2929C29.665 12.3539 29.7905 11.6022 30.1052 10.8517C30.4198 10.1636 30.7961 9.59933 31.3001 9.0986C31.8029 8.59788 32.4312 8.2845 33.0606 8.0347C33.7515 7.78377 34.4436 7.65887 35.1984 7.65887C36.0159 7.65887 36.7069 7.78377 37.3363 7.97225C37.9657 8.16074 38.4674 8.47298 38.9075 8.84881C39.3476 9.22463 39.6623 9.66291 39.9131 10.1636C40.164 10.6644 40.2906 11.2275 40.416 11.7907H37.5244C37.3363 11.29 37.0843 10.8517 36.7696 10.5383C36.4549 10.225 35.9521 10.1001 35.2611 10.1001C34.8837 10.1001 34.5702 10.1625 34.1928 10.2874C33.8781 10.4123 33.5645 10.6008 33.3125 10.8506C33.0606 11.1004 32.8724 11.4762 32.747 11.852C32.6216 12.2279 32.5589 12.7286 32.5589 13.2918V13.73C32.5589 14.3557 32.6216 14.8564 32.747 15.2947C32.8724 15.7329 33.0617 16.1088 33.3125 16.3586C33.5645 16.6095 33.8154 16.8593 34.1928 16.9842C34.5075 17.1091 34.8837 17.1715 35.2611 17.1715C35.8267 17.1715 36.3295 17.0466 36.7069 16.7332C37.0843 16.4199 37.3979 16.0452 37.5244 15.4809H40.416C40.3533 16.1065 40.164 16.6708 39.9131 17.1715C39.6623 17.6723 39.2849 18.1105 38.8448 18.4864C38.4047 18.8622 37.9018 19.112 37.2736 19.3005C36.7708 19.4878 36.0787 19.5514 35.325 19.5514L35.3238 19.5537Z" fill="black"/>
<path d="M46.3255 19.4287C45.6345 19.4287 45.0679 19.3663 44.6277 19.2414C44.1249 19.1165 43.7475 18.928 43.4328 18.6158C43.1181 18.3035 42.8673 17.9277 42.7418 17.3634C42.6164 16.8627 42.5537 16.2371 42.5537 15.4229V4.27982H45.3825V15.1096C45.3825 15.4854 45.3825 15.7976 45.4453 15.9861C45.508 16.237 45.5707 16.4244 45.6972 16.5493C45.8227 16.6742 45.9492 16.8002 46.2001 16.8627C46.3882 16.9251 46.6402 16.9876 46.9549 16.9876H47.395C47.5204 16.9876 47.647 16.9876 47.7097 16.9251V19.3039C47.647 19.3039 47.5216 19.3039 47.395 19.3663C47.2696 19.3663 47.143 19.3663 47.0803 19.4287H46.3255Z" fill="black"/>
<path d="M49.7827 7.90958H52.6116V19.3025H49.7827V7.90958ZM51.2285 6.71964C50.7257 6.71964 50.2856 6.59475 49.9709 6.28137C49.6562 5.96799 49.5308 5.5933 49.5308 5.15502C49.5308 4.71674 49.6562 4.34091 49.9709 4.02867C50.2856 3.71643 50.7257 3.59039 51.2285 3.59039C51.7313 3.59039 52.1715 3.71529 52.4862 4.02867C52.8009 4.34205 52.9263 4.71674 52.9263 5.15502C52.9263 5.5933 52.8009 5.96912 52.4862 6.28137C52.1715 6.59361 51.7313 6.71964 51.2285 6.71964Z" fill="black"/>
<path d="M60.4698 19.5537C59.6523 19.5537 58.8987 19.4288 58.2066 19.1778C57.5156 18.9269 56.9489 18.5522 56.4461 18.1139C55.9433 17.6132 55.5658 17.05 55.2512 16.2984C54.9992 15.5467 54.811 14.7338 54.811 13.7312V13.2929C54.811 12.3539 54.9365 11.6022 55.2512 10.8517C55.5658 10.1636 55.9421 9.59933 56.4461 9.0986C56.9489 8.59788 57.5772 8.2845 58.2066 8.0347C58.8975 7.78377 59.5896 7.65887 60.3444 7.65887C61.1619 7.65887 61.8529 7.78377 62.4823 7.97225C63.1117 8.16074 63.6134 8.47298 64.0535 8.84881C64.4936 9.22463 64.8083 9.66291 65.0591 10.1636C65.31 10.6644 65.4366 11.2275 65.562 11.7907H62.6704C62.4823 11.29 62.2303 10.8517 61.9156 10.5383C61.6009 10.225 61.0981 10.1001 60.4071 10.1001C60.0297 10.1001 59.7162 10.1625 59.3388 10.2874C59.0241 10.4123 58.7105 10.6008 58.4585 10.8506C58.2065 11.1004 58.0184 11.4762 57.893 11.852C57.7676 12.2279 57.7049 12.7286 57.7049 13.2918V13.73C57.7049 14.3557 57.7676 14.8564 57.893 15.2947C58.0184 15.7329 58.2077 16.1088 58.4585 16.3586C58.7105 16.6095 58.9614 16.8593 59.3388 16.9842C59.6535 17.1091 60.0297 17.1715 60.4071 17.1715C60.9727 17.1715 61.4755 17.0466 61.8529 16.7332C62.2303 16.4199 62.5439 16.0452 62.6704 15.4809H65.562C65.4993 16.1065 65.31 16.6708 65.0591 17.1715C64.8083 17.6722 64.4309 18.1105 63.9908 18.4864C63.5507 18.8622 63.0478 19.112 62.4196 19.3005C61.9168 19.4878 61.2247 19.5514 60.471 19.5514L60.4698 19.5537Z" fill="black"/>
<path d="M67.5732 19.3032V4.27914H70.4648V12.6053L74.614 7.91026H77.9456L73.671 12.7302L78.3858 19.3032H74.9914L71.7224 14.6706L70.4648 16.0479V19.3032H67.5732Z" fill="black"/>
<path fill-rule="evenodd" clip-rule="evenodd" d="M5.11013 4.67854C2.29658 7.43862 0.911133 10.0735 0.911133 12.7077V12.7494C0.911133 15.3836 2.29658 18.0602 5.11013 20.8203C7.88179 23.5804 10.5689 24.96 13.2149 25.0017H13.2568C15.902 25.0017 18.5899 23.6221 21.3616 20.8203C26.9049 15.3002 26.9468 10.2404 21.3616 4.63683C18.548 1.87676 15.8609 0.497101 13.2149 0.497101C10.5689 0.497101 7.88179 1.87676 5.11013 4.67854ZM8.76379 17.1402C5.69813 14.0874 5.74002 11.3273 8.76379 8.31692C11.7876 5.3058 14.5592 5.26408 17.6241 8.31692C20.6898 11.3698 20.6479 14.1298 17.6241 17.1402C16.1122 18.6458 14.6422 19.3982 13.2149 19.3982C11.7449 19.4399 10.3176 18.6875 8.76379 17.1402Z" fill="url(#paint0_linear_47_90)"/>
<defs>
<linearGradient id="paint0_linear_47_90" x1="5.01417" y1="21.3323" x2="20.6278" y2="4.88852" gradientUnits="userSpaceOnUse">
<stop stop-color="#0078FF"/>
<stop offset="1" stop-color="#00DEFF"/>
</linearGradient>
</defs>
</svg>
