<svg width="83" height="24" viewBox="0 0 83 24" fill="none" xmlns="http://www.w3.org/2000/svg">
<path d="M14.2522 2.57097C13.964 2.11771 13.5891 1.7231 13.1464 1.40849C12.7003 1.11093 12.2104 0.880568 11.6941 0.722727C11.133 0.544621 10.5543 0.425173 9.9668 0.367583C9.28069 0.30146 8.59129 0.270531 7.9008 0.273731H1.92529C1.35316 0.221472 0.845706 0.629941 0.792001 1.18559C0.792001 1.19519 0.789809 1.20585 0.789809 1.21545V10.7105C1.6184 12.4404 2.99391 13.8663 4.71576 14.7803V12.8851C4.66096 12.2708 5.12786 11.729 5.75917 11.6757H5.76136H7.55445C10.0008 11.6757 11.8673 11.1776 13.154 10.1815C14.4408 9.1854 15.094 7.7083 15.1137 5.75127C15.1159 5.18709 15.048 4.62505 14.911 4.07687C14.7739 3.54468 14.5526 3.03596 14.2533 2.57097H14.2522ZM10.7505 7.42567C10.5422 7.77442 10.232 8.05597 9.86048 8.23408C9.45715 8.42178 9.02203 8.53377 8.57595 8.56576C8.08602 8.62548 7.59391 8.65428 7.09961 8.65321H5.37885C4.96675 8.65321 4.70918 8.32793 4.70918 7.85121V3.95529C4.68726 3.63534 4.93606 3.35805 5.26487 3.33565C5.30323 3.33352 5.34049 3.33458 5.37776 3.33885H7.09851C7.65638 3.33885 8.18247 3.35485 8.67568 3.38577C9.11629 3.40604 9.54812 3.50949 9.94817 3.68866C10.3164 3.84864 10.6244 4.11633 10.8261 4.45654C11.0551 4.91193 11.1593 5.41639 11.1308 5.92191C11.1428 6.44663 11.0102 6.96388 10.7483 7.42247V7.42781L10.7505 7.42567ZM4.72124 15.3508C3.24819 14.8336 1.90666 14.0124 0.789809 12.9437V17.5084C0.738296 17.8646 0.993669 18.1941 1.35974 18.2432C1.36851 18.2442 1.37837 18.2453 1.38714 18.2464H4.08774C4.80454 18.2464 4.72124 17.502 4.72124 17.502V15.3508ZM41.8413 5.24575H39.5112C39.0519 5.21695 38.6376 5.51344 38.5313 5.94964L35.8241 13.2061C35.8241 13.2061 33.4337 6.59487 33.2551 6.08295C33.1509 5.59663 32.7136 5.24575 32.2029 5.23935H30.058C29.2929 5.23935 29.2929 5.82059 29.3949 6.04776C29.4968 6.27492 32.4309 14.1009 33.5773 17.0956C33.7581 17.4646 33.8842 17.856 33.9532 18.2581C33.8787 18.6559 33.7242 19.0356 33.4995 19.3747C33.4118 19.5187 33.3121 19.6552 33.2003 19.7821C35.4109 19.1422 37.9811 16.8109 39.2711 14.2929C40.5743 10.8043 42.2885 6.15227 42.3663 5.91444C42.4496 5.54863 42.4496 5.24575 41.8402 5.24575H41.8413ZM31.4554 20.4914C31.2559 20.486 31.0564 20.4711 30.8581 20.4444C30.6126 20.4092 30.1467 20.4444 30.1467 20.8518V22.5966C30.1467 23.2653 30.481 23.3122 30.6542 23.3581C31.2077 23.4765 31.7732 23.5351 32.3388 23.533C33.0085 23.5501 33.6726 23.4168 34.2809 23.1437C34.8366 22.8707 35.3309 22.491 35.7332 22.0271C36.1891 21.5195 36.5749 20.9574 36.8807 20.3527C37.2117 19.7096 37.5263 18.9983 37.8244 18.2186L38.1707 17.294C37.478 17.9627 34.4179 20.7708 31.4543 20.4924L31.4554 20.4914ZM27.9295 7.33289C27.8024 7.0396 27.6292 6.76658 27.4155 6.52448C27.1995 6.30052 26.954 6.10535 26.6866 5.94324C26.3973 5.75127 26.0893 5.58809 25.7659 5.45478C25.4371 5.33107 25.0996 5.23188 24.7565 5.1583C24.363 5.07404 23.963 5.01752 23.5618 4.98979C23.1311 4.94713 22.65 4.9258 22.1162 4.9258C18.5552 4.9258 16.5276 6.01896 16.0333 8.20528C15.9533 8.5167 16.1473 8.83238 16.4673 8.91131C16.498 8.91877 16.5287 8.9241 16.5594 8.92624H18.7525C19.3498 8.92624 19.3498 8.746 19.5767 8.24581C19.6765 7.97385 19.8551 7.73496 20.0907 7.56005C20.6508 7.20811 21.3139 7.0428 21.9792 7.08866C22.5995 7.0268 23.2232 7.17718 23.7416 7.51313C24.1373 7.87254 24.3718 8.37059 24.3926 8.89744C24.3926 9.61839 24.1658 10.0951 23.2451 10.0951C21.064 10.0194 18.7218 10.2583 17.4011 10.9963C16.0782 11.7823 15.2891 13.1976 15.334 14.7056C15.3187 15.2826 15.4392 15.8553 15.6869 16.38C15.9193 16.8365 16.2569 17.2343 16.6734 17.5425C17.1096 17.8891 17.6137 18.1461 18.1552 18.2986C18.7668 18.4597 19.3981 18.5375 20.0316 18.5311C20.8843 18.5439 21.7326 18.4266 22.5469 18.1824C23.267 17.8955 23.9476 17.5222 24.5724 17.0722V17.4796C24.5724 17.8806 24.6973 18.241 25.1697 18.241H27.7092C28.2232 18.241 28.3427 17.8859 28.3427 17.4444V9.83276C28.346 9.35817 28.312 8.88358 28.2408 8.41432C28.1849 8.04211 28.0796 7.6795 27.9295 7.33289ZM24.4573 14.8101C24.4573 14.8101 23.7997 16.1475 21.4695 16.1475C20.9106 16.172 20.3582 16.0238 19.8924 15.723C19.4759 15.4084 19.2501 14.9093 19.295 14.3974C19.2424 13.7052 19.6348 13.0525 20.2815 12.7582C21.224 12.4062 22.2302 12.242 23.2396 12.275C23.8304 12.1887 24.3817 12.5843 24.4705 13.1592C24.4792 13.2136 24.4825 13.268 24.4825 13.3223L24.4584 14.8112L24.4573 14.8101Z" fill="#333333"/>
<path d="M82.5343 9.91517C83.135 10.8548 83.135 12.045 82.5343 12.9856C81.937 13.8698 78.6796 17.2538 77.6044 18.3405C76.6717 19.2822 75.4113 20.2357 74.1629 20.2357H48.2946C44.7928 20.2357 44.5835 19.0732 44.5835 16.4795V5.903C44.5835 3.24529 45.3902 2.47208 47.7861 2.47208H74.2221C75.4595 2.47208 76.5643 3.08851 77.8072 4.33312C78.8944 5.39748 82.1036 9.28701 82.5343 9.91517Z" fill="#33CCCC"/>
<path d="M50.4581 6.55976V6.49577C50.4581 6.15236 50.4581 5.82175 49.8608 5.82175H47.6917C47.1843 5.82175 47.1602 6.08944 47.1602 6.50751V9.29853C48.0161 8.13925 49.1472 7.19966 50.4581 6.55976Z" fill="white"/>
<path d="M64.9845 16.6533V16.5018V9.76901C64.9845 6.95132 63.7055 5.54141 61.1485 5.54141C60.4371 5.54994 59.7412 5.75151 59.1406 6.12265C58.4786 6.52472 57.8878 7.02704 57.3902 7.61149C57.1644 6.98012 56.7271 6.44154 56.1473 6.08213C55.4886 5.72912 54.7422 5.55741 53.9903 5.58834C52.8845 5.5926 51.8104 5.95201 50.9368 6.61218C50.7461 6.79775 47.1545 9.51945 47.1545 12.3574V16.6661C47.1545 16.7994 47.0832 17.323 47.686 17.323H49.9384C50.6376 17.323 50.5719 16.8751 50.5719 16.6895V9.71249C50.9478 9.2187 51.7194 8.03809 52.9919 8.03809C53.4062 8.00182 53.8084 8.18633 54.0441 8.52121C54.2994 9.01713 54.4112 9.57278 54.3663 10.1263V15.5633V16.6799C54.3663 16.8132 54.295 17.3369 54.8979 17.3369H57.1272C57.8264 17.3369 57.7607 16.889 57.7607 16.7034V16.5519V9.69116C58.1673 9.19737 58.9553 8.01676 60.1807 8.01676C60.5994 7.98369 61.006 8.16713 61.2504 8.49988C61.5102 8.99474 61.6241 9.55038 61.5792 10.105V15.542V16.6586C61.5792 16.7919 61.508 17.3156 62.1108 17.3156H64.3631C65.0678 17.2804 64.9845 16.8388 64.9845 16.6586V16.6533Z" fill="white"/>
<path d="M77.407 13.9154C76.6212 15.9705 74.5552 17.2919 72.304 17.1778C68.8624 17.1778 66.5674 14.8987 66.5674 11.4795C66.5674 8.06027 68.9578 5.66492 72.1845 5.66492C75.4112 5.66492 77.5627 7.83951 77.6997 11.3462C77.6997 11.7941 77.5857 12.1898 77.007 12.1898H69.7053C69.7535 14.0679 70.6797 15.097 72.3281 15.097C73.2224 15.1184 74.0477 14.6331 74.4434 13.8524C74.5979 13.6327 74.8566 13.5037 75.1306 13.509H77.0125C77.2196 13.4994 77.3961 13.6551 77.4059 13.8578C77.407 13.8855 77.4059 13.9122 77.4005 13.9399L77.4059 13.9164L77.407 13.9154ZM72.1965 7.83311C70.8276 7.83311 69.9015 8.75776 69.6987 10.2807H74.599C74.4741 8.94867 73.7321 7.83311 72.1965 7.83311Z" fill="white"/>
</svg>
