<svg width="84" height="32" viewBox="0 0 84 32" fill="none" xmlns="http://www.w3.org/2000/svg">
<g clip-path="url(#clip0_47_105)">
<path d="M31.0407 16.0874C31.0407 7.64304 24.1952 0.797546 15.7508 0.797546C7.30643 0.797546 0.460938 7.64304 0.460938 16.0874C0.460938 24.5318 7.30643 31.3773 15.7508 31.3773C24.1952 31.3773 31.0407 24.5318 31.0407 16.0874Z" fill="#A6FC6F"/>
<path d="M29.6513 9.72406L28.5211 10.8543L24.2968 15.0785L18.5712 20.8052C17.1942 22.1812 16.5068 22.8697 15.7125 23.1268C15.0147 23.3539 14.2629 23.3539 13.5651 23.1268C12.7709 22.8697 12.0834 22.1812 10.7064 20.8052L7.43403 17.5318L6.47388 16.5716C5.09794 15.1957 4.40945 14.5072 4.15126 13.714C3.92419 13.0162 3.92419 12.2634 4.15126 11.5656C4.40945 10.7724 5.09794 10.0839 6.47388 8.70792L12.5106 2.67016H12.5116L14.3158 0.864944C14.7886 0.820358 15.2666 0.797546 15.7509 0.797546C21.911 0.797546 27.2333 4.46085 29.6513 9.72406Z" fill="#7000FF"/>
<path d="M27.5795 21.0447C27.3213 21.839 26.6328 22.5264 25.2569 23.9034L17.9406 31.2197C17.2252 31.3234 16.4942 31.3762 15.7507 31.3762C9.7669 31.3762 4.57523 27.9213 2.06494 22.9008L3.18063 21.7851L7.43392 17.5318L13.1596 11.8061C14.5355 10.4291 15.224 9.74169 16.0183 9.48351C16.7161 9.25643 17.4678 9.25643 18.1656 9.48351C18.9589 9.74169 19.6474 10.4291 21.0243 11.8061L25.2569 16.0387C26.6328 17.4157 27.3213 18.1031 27.5795 18.8974C27.8055 19.5952 27.8055 20.3469 27.5795 21.0447Z" fill="#7000FF"/>
<path d="M29.6512 9.72406C27.2332 4.46085 21.9109 0.797546 15.7508 0.797546C15.2666 0.797546 14.7886 0.820358 14.3158 0.864944C6.55573 1.58972 0.460938 8.14075 0.460938 16.0874C0.460938 18.5345 1.03848 20.8488 2.06499 22.9008C4.57529 27.9213 9.76696 31.3762 15.7508 31.3762C16.4942 31.3762 17.2252 31.3234 17.9407 31.2197C25.3368 30.1538 31.0396 23.7738 31.0396 16.0874C31.0396 13.8177 30.543 11.662 29.6512 9.72406ZM19.9128 29.2475C18.5991 29.6633 17.2004 29.8883 15.7508 29.8883C10.1713 29.8883 5.35398 26.561 3.18068 21.7851C2.38954 20.0473 1.94886 18.1176 1.94886 16.0874C1.94886 9.59238 6.45826 4.13112 12.5105 2.67016H12.5116C13.5505 2.41819 14.6351 2.28547 15.7508 2.28547C21.5096 2.28547 26.4556 5.83161 28.521 10.8543C29.1857 12.4687 29.5517 14.2366 29.5517 16.0874C29.5517 22.2475 25.4944 27.4776 19.9128 29.2475Z" fill="#A6FC6F"/>
<path d="M20.0826 11.3831C20.543 11.4847 20.9889 11.5707 21.4264 11.6827C21.891 11.8009 22.3524 11.945 22.8127 12.0736C22.8781 12.0923 22.904 12.1182 22.904 12.1918C22.9019 13.631 22.9164 15.0712 22.8978 16.5104C22.876 18.0575 22.3887 19.4562 21.4482 20.6849C20.3999 22.0567 19.0292 22.9391 17.3515 23.3414C16.69 23.5001 16.016 23.5529 15.3379 23.5125C13.7255 23.4171 12.2977 22.8489 11.0763 21.7944C9.8175 20.7108 9.02221 19.3453 8.70389 17.7101C8.61264 17.2456 8.57739 16.7738 8.57739 16.301C8.57532 14.9385 8.57739 13.5771 8.57324 12.2146C8.57324 12.1234 8.60331 12.0923 8.68523 12.0664C9.5645 11.7854 10.4604 11.5635 11.3666 11.3986C11.3749 11.3965 11.3832 11.3986 11.405 11.3965V11.5023C11.405 13.2121 11.3987 14.923 11.4091 16.6328C11.4153 17.4944 11.5315 18.3468 11.8249 19.1638C12.0572 19.8129 12.4014 20.3915 12.9147 20.8602C13.3968 21.2977 13.9609 21.5746 14.5923 21.7094C15.4861 21.9012 16.3779 21.8867 17.254 21.6098C18.2888 21.2842 19.0074 20.5958 19.4678 19.6263C19.7145 19.1089 19.8628 18.5593 19.9561 17.9953C20.0598 17.3679 20.0847 16.7334 20.0847 16.0998V11.521C20.0826 11.4805 20.0826 11.4432 20.0826 11.382V11.3831Z" fill="white"/>
<path d="M16.996 14.5518H14.4795V8.6633C14.7418 8.58139 16.4973 8.57413 16.996 8.65708V14.5518Z" fill="white"/>
<path d="M65.2762 10.3327C65.2762 11.6755 64.5337 12.2935 63.4284 12.2935C62.3231 12.2935 61.6056 11.6838 61.6056 10.3327V5.90524H59.2197V10.4198C59.2197 13.3615 61.6305 14.5165 63.4409 14.5165C65.2513 14.5165 67.6662 13.3615 67.6662 10.4198V5.90524H65.2803L65.2762 10.3327Z" fill="#7000FF"/>
<path d="M57.2105 7.96135V5.90417H49.465V7.96135H54.0491L49.2773 12.3017V14.3589H57.4967V12.3017H52.4481L57.2105 7.96135Z" fill="#7000FF"/>
<path d="M79.6026 5.74347C78.0919 5.74347 76.9524 6.37078 76.3893 7.32575C75.8128 6.37182 74.5665 5.74347 73.2694 5.74347C70.7217 5.74347 69.3945 7.39937 69.3945 9.44825V14.36H71.7804V9.79664C71.7804 8.81575 72.2843 7.95721 73.4404 7.95721C73.6748 7.94373 73.9143 7.97899 74.132 8.06608C74.3539 8.15318 74.5541 8.28383 74.721 8.45388C74.8879 8.62393 75.0155 8.82819 75.1005 9.05527C75.1814 9.28235 75.2197 9.52187 75.2031 9.76139V14.3631H77.589V9.7562C77.589 8.77531 78.1562 7.94788 79.3009 7.94788C80.4456 7.94788 80.9952 8.81057 80.9952 9.78731V14.3506H83.381V9.4524C83.381 7.40455 82.1523 5.74762 79.5871 5.74762L79.6037 5.74347H79.6026Z" fill="#7000FF"/>
<path d="M45.3245 10.3327C45.3245 11.6755 44.5821 12.2935 43.4851 12.2935C42.388 12.2935 41.6539 11.6838 41.6539 10.3327V5.90524H39.2681V10.4198C39.2681 13.3615 41.6705 14.5165 43.4892 14.5165C45.3079 14.5165 47.7052 13.3615 47.7052 10.4198V5.90524H45.3193L45.3235 10.3327H45.3245Z" fill="#7000FF"/>
<path d="M59.6129 24.9455V19.4676H57.253L57.2654 20.8011C56.7532 20.0172 55.8491 19.2934 54.2481 19.2934C51.491 19.2934 50.0788 21.4854 50.0788 23.6774C50.028 25.9004 51.6279 28.1048 54.133 28.1048C55.4644 28.1048 56.6682 27.4952 57.253 26.4489C57.3899 26.8896 57.6626 27.2722 58.0379 27.5387C58.4091 27.8042 58.8571 27.9348 59.3091 27.9089H60.6747V25.861H60.2952C59.8255 25.861 59.6119 25.6827 59.6119 24.9507V24.9465L59.6129 24.9455ZM54.7479 25.9958C53.3989 25.9958 52.3797 25.0409 52.3797 23.6991C52.3797 22.3574 53.4041 21.4377 54.7479 21.4377C56.0917 21.4377 57.1586 22.3657 57.1586 23.6991C57.1586 25.0326 56.1477 25.9958 54.7479 25.9958Z" fill="#7000FF"/>
<path d="M44.159 28.1132C41.3035 28.1132 39.2681 26.7362 39.2681 23.3808V16.8433H41.6539V20.3469C42.3362 19.6584 43.2455 19.3225 44.552 19.3225C47.3983 19.3225 48.9857 21.3102 48.9857 23.7116C48.9857 26.5755 46.801 28.1132 44.1756 28.1132H44.159ZM44.1331 21.4191C42.7758 21.4191 41.7473 22.374 41.7473 23.7157C41.7473 25.0575 42.7675 25.9772 44.1331 25.9772C45.4987 25.9772 46.5449 25.0398 46.5449 23.7157C46.5449 22.3916 45.5339 21.4191 44.1331 21.4191Z" fill="#7000FF"/>
<path d="M73.0822 27.9265H75.4639V23.7821L79.1729 27.9265H81.9901L78.1453 23.5861L81.6914 19.4718H78.8919L75.4608 23.4285V16.8568H73.0791V27.9265H73.0833H73.0822Z" fill="#7000FF"/>
<path d="M62.3918 19.4718H64.7777V20.9887H64.9104C65.0514 20.7057 65.2557 20.4527 65.5212 20.2308C65.743 20.0473 66.0417 19.8648 66.4212 19.703C66.8007 19.5423 67.288 19.4552 67.8894 19.4552C68.3757 19.4552 68.8288 19.5247 69.255 19.6647C69.6811 19.8046 70.0492 20.0224 70.3644 20.3189C70.6807 20.6155 70.9233 20.9939 71.1027 21.447C71.2779 21.9002 71.3671 22.4404 71.3671 23.0729V27.9151H68.9812V23.7614C68.9812 23.0376 68.7894 22.5016 68.4047 22.149C68.02 21.7954 67.5089 21.6212 66.8815 21.6212C66.1858 21.6212 65.6611 21.8214 65.3065 22.2226C64.9571 22.6239 64.7736 23.1382 64.7736 23.7614V27.9151H62.3877V19.4739H62.3918V19.4718Z" fill="#7000FF"/>
</g>
<defs>
<clipPath id="clip0_47_105">
<rect width="82.9195" height="30.5797" fill="white" transform="translate(0.460938 0.797546)"/>
</clipPath>
</defs>
</svg>
